<svg t="1681352364533" class="icon" viewBox="0 0 1024 1024" version="1.1" xmlns="http://www.w3.org/2000/svg" p-id="2687" width="32" height="32"><path d="M200.254349 538.823435C311.438512 514.866627 296.286343 382.080384 292.907818 353.004599c-5.426115-44.739852-58.15157-122.957808-129.612477-116.815037-89.991602 7.985603-103.096181 138.007598-103.096181 138.007599C48.015997 434.293941 89.274945 562.677864 200.254349 538.823435z m118.043591 231.070586c-3.276145 9.316537-10.545091 33.273345-4.19756 54.056389 12.387922 46.685063 52.930214 48.732653 52.930214 48.732653h58.253949v-142.307538h-62.34913c-28.05199 8.292741-41.566087 30.09958-44.637473 39.518496zM406.54909 315.943211c61.427714 0 111.081784-70.641872 111.081784-158.073985C517.630874 70.641872 467.976805 0 406.54909 0c-61.325335 0-111.081784 70.641872-111.081783 157.971606 0 87.329734 49.858828 157.971606 111.081783 157.971605z m264.446311 10.442712c82.108378 10.647471 134.833833-76.887023 145.276545-143.331334 10.74985-66.239552-42.282743-143.331334-100.331934-156.538292-58.253949-13.309338-130.943411 79.856029-137.495701 140.669466-7.883223 74.429914 10.647471 148.655069 92.55109 159.20016z m201.073385 390.270746s-126.95061-98.284343-201.073385-204.45191c-100.434313-156.538292-243.253749-92.858228-290.962608-13.206959-47.504099 79.65127-121.626875 129.919616-132.171965 143.331334-10.647471 13.104579-153.364527 90.093981-121.626875 230.865827C157.869226 1013.762048 269.155769 1011.10018 269.155769 1011.10018s82.005999 8.087982 177.116577-13.206959c95.212957-21.090182 177.116577 5.323735 177.116576 5.323736s222.265947 74.429914 283.079384-68.90142c60.813437-143.331334-34.39952-217.658868-34.39952-217.658868zM491.831234 929.913217H347.271346c-62.45151-12.490302-87.227355-54.977804-90.40112-62.24675-3.071386-7.371326-20.783043-41.566087-11.364127-99.820036 26.925815-87.227355 103.915217-93.574885 103.915217-93.574885h76.887022V579.672865l65.522896 1.023796v349.216556z m269.053389-1.023795H594.620276c-64.396721-16.585483-67.468106-62.34913-67.468106-62.34913V682.564287l67.468106-1.126175v165.240552c4.095181 17.609278 26.004399 20.783043 26.004399 20.783044H689.116577V682.564287h71.768046v246.325135z m235.472905-491.012197c0-31.737652-26.413917-127.360128-124.186362-127.360128-97.977205 0-111.081784 90.29874-111.081784 154.081183 0 60.915817 5.118976 145.890822 126.84823 143.228955 121.729254-2.764247 108.419916-138.007598 108.419916-169.95001z m0 0" fill="#3245DF" p-id="2688"></path></svg>