<svg xmlns="http://www.w3.org/2000/svg" width="24" height="24" fill="none"><path fill="url(#a)" d="M5 2.002a1 1 0 0 1 1.56-.828l2.56 1.731A2 2 0 0 1 10 4.562V19s-1.946 1.504-3.006 1c-1.38-.654-1.997-3.363-1.997-3.363L5 2.002Z"/><path fill="url(#b)" d="M5 2.002a1 1 0 0 1 1.56-.828l2.56 1.731A2 2 0 0 1 10 4.562V19s-1.946 1.504-3.006 1c-1.38-.654-1.997-3.363-1.997-3.363L5 2.002Z"/><path fill="url(#c)" d="M5.065 16.262 5 16v.198a5.802 5.802 0 0 0 8.93 4.886l4.225-2.705a2.92 2.92 0 0 0 1.345-2.46v-1.731a1.188 1.188 0 0 0-1.772-1.035l-8.604 4.854a2.778 2.778 0 0 1-4.059-1.745Z"/><path fill="url(#d)" d="M5.065 16.262 5 16v.198a5.802 5.802 0 0 0 8.93 4.886l4.225-2.705a2.92 2.92 0 0 0 1.345-2.46v-1.731a1.188 1.188 0 0 0-1.772-1.035l-8.604 4.854a2.778 2.778 0 0 1-4.059-1.745Z"/><path fill="url(#e)" d="m13.292 12.377-1.247-3.743a.871.871 0 0 1 1.189-1.065l3.467 1.6a5.679 5.679 0 0 1 2.497 8.066l-.236.395-.321.37a2.504 2.504 0 0 0-1.319-3.78l-3.196-1.02a1.292 1.292 0 0 1-.834-.823Z"/><defs><linearGradient id="a" x1="13.736" x2="13.736" y1="20.305" y2="1.256" gradientUnits="userSpaceOnUse"><stop stop-color="#1B48EF"/><stop offset=".12" stop-color="#1C51F0"/><stop offset=".32" stop-color="#1E69F5"/><stop offset=".57" stop-color="#2190FB"/><stop offset="1" stop-color="#26B8F4"/></linearGradient><linearGradient id="b" x1="13.731" x2="13.731" y1="1.758" y2="20.005" gradientUnits="userSpaceOnUse"><stop stop-opacity="0"/><stop offset="1" stop-opacity=".1"/></linearGradient><linearGradient id="c" x1="5" x2="19.499" y1="17.491" y2="17.491" gradientUnits="userSpaceOnUse"><stop stop-color="#39D2FF"/><stop offset=".15" stop-color="#38CEFE"/><stop offset=".29" stop-color="#35C3FA"/><stop offset=".43" stop-color="#2FB0F3"/><stop offset=".55" stop-color="#299AEB"/><stop offset=".58" stop-color="#2692EC"/><stop offset=".76" stop-color="#1A6CF1"/><stop offset=".91" stop-color="#1355F4"/><stop offset="1" stop-color="#104CF5"/></linearGradient><linearGradient id="d" x1="6.668" x2="17.505" y1="20.583" y2="13.562" gradientUnits="userSpaceOnUse"><stop stop-color="#fff" stop-opacity="0"/><stop offset="1" stop-opacity=".15"/></linearGradient><linearGradient id="e" x1="10.627" x2="20.79" y1="9.581" y2="16.634" gradientUnits="userSpaceOnUse"><stop stop-color="#37BDFF"/><stop offset=".18" stop-color="#33BFFD"/><stop offset=".36" stop-color="#28C5F5"/><stop offset=".53" stop-color="#15D0E9"/><stop offset=".55" stop-color="#12D1E7"/><stop offset=".59" stop-color="#1CD2E5"/><stop offset=".77" stop-color="#42D8DC"/><stop offset=".91" stop-color="#59DBD6"/><stop offset="1" stop-color="#62DCD4"/></linearGradient></defs></svg>